<?xml version="1.0" encoding="utf-8"?>
<!-- Generator: Adobe Illustrator 16.0.0, SVG Export Plug-In . SVG Version: 6.00 Build 0)  -->
<!DOCTYPE svg PUBLIC "-//W3C//DTD SVG 1.1//EN" "http://www.w3.org/Graphics/SVG/1.1/DTD/svg11.dtd">
<svg version="1.1" id="Layer_1" xmlns="http://www.w3.org/2000/svg" xmlns:xlink="http://www.w3.org/1999/xlink" x="0px" y="0px"
	 width="91px" height="91px" viewBox="0 0 91 91" enable-background="new 0 0 91 91" xml:space="preserve">
<g>
	<g>
		<g>
			<g>
				<rect x="13.023" y="61.77" fill="#F4767A" width="12.063" height="20.46"/>
				<path fill="#454B53" d="M25.086,84.742H13.023c-1.388,0-2.513-1.125-2.513-2.513V61.77c0-1.388,1.125-2.513,2.513-2.513h12.063
					c1.388,0,2.513,1.125,2.513,2.513v20.46C27.599,83.617,26.474,84.742,25.086,84.742z M15.536,79.717h7.037V64.282h-7.037V79.717
					z"/>
			</g>
			<g>
				<rect x="39.829" y="48.367" fill="#9ABFDA" width="12.062" height="33.862"/>
				<path fill="#454B53" d="M51.891,84.742H39.829c-1.388,0-2.513-1.125-2.513-2.513V48.367c0-1.387,1.125-2.512,2.513-2.512h12.062
					c1.388,0,2.513,1.125,2.513,2.512v33.862C54.403,83.617,53.278,84.742,51.891,84.742z M42.342,79.717h7.036V50.881h-7.036
					V79.717z"/>
			</g>
			<g>
				<rect x="66.634" y="34.965" fill="#FDE497" width="12.059" height="47.265"/>
				<path fill="#454B53" d="M78.692,84.742H66.634c-1.388,0-2.513-1.125-2.513-2.513V34.965c0-1.389,1.125-2.514,2.513-2.514h12.059
					c1.388,0,2.513,1.125,2.513,2.514v47.265C81.205,83.617,80.08,84.742,78.692,84.742z M69.146,79.717h7.033v-42.24h-7.033V79.717
					z"/>
			</g>
			<path fill="#454B53" d="M88.071,84.742H3.642c-1.388,0-2.513-1.125-2.513-2.513s1.125-2.513,2.513-2.513h84.43
				c1.388,0,2.513,1.125,2.513,2.513S89.459,84.742,88.071,84.742z"/>
			<path fill="#454B53" d="M3.644,50.927c-0.898,0-1.768-0.483-2.22-1.332c-0.652-1.225-0.188-2.746,1.036-3.398L74.831,7.641
				c1.227-0.652,2.747-0.189,3.399,1.035s0.188,2.746-1.036,3.398L4.823,50.631C4.446,50.832,4.042,50.927,3.644,50.927z"/>
			<path fill="#454B53" d="M76.013,12.37H58.591c-1.388,0-2.513-1.125-2.513-2.513s1.125-2.513,2.513-2.513h17.422
				c1.388,0,2.513,1.125,2.513,2.513S77.4,12.37,76.013,12.37z"/>
			<path fill="#454B53" d="M67.296,26.847c-0.441,0-0.889-0.116-1.294-0.36c-1.188-0.715-1.572-2.26-0.856-3.448L73.86,8.562
				c0.716-1.188,2.261-1.571,3.448-0.856c1.188,0.715,1.572,2.26,0.856,3.448L69.45,25.63
				C68.979,26.413,68.147,26.847,67.296,26.847z"/>
		</g>
	</g>
</g>
</svg>
