<?xml version="1.0" encoding="utf-8"?>
<!-- Generator: Adobe Illustrator 16.0.0, SVG Export Plug-In . SVG Version: 6.00 Build 0)  -->
<!DOCTYPE svg PUBLIC "-//W3C//DTD SVG 1.1//EN" "http://www.w3.org/Graphics/SVG/1.1/DTD/svg11.dtd">
<svg version="1.1" id="Layer_1" xmlns="http://www.w3.org/2000/svg" xmlns:xlink="http://www.w3.org/1999/xlink" x="0px" y="0px"
	 width="91px" height="91px" viewBox="0 0 91 91" enable-background="new 0 0 91 91" xml:space="preserve">
<g>
	<g>
		<g>
			<g>
				<g>
					<g>
						<g>
							<g>
								<path fill="#E6CBA5" d="M40.516,71.47H2.421V37.957h42.964v28.637C45.385,69.274,43.187,71.47,40.516,71.47z"/>
								<path fill="#454B53" d="M40.516,73.551H2.421c-1.149,0-2.081-0.931-2.081-2.081V37.957c0-1.148,0.932-2.081,2.081-2.081
									h42.964c1.147,0,2.081,0.933,2.081,2.081v28.637C47.466,70.43,44.349,73.551,40.516,73.551z M4.502,69.389h36.014
									c1.537,0,2.788-1.253,2.788-2.795V40.038H4.502V69.389z"/>
							</g>
							<g>
								<polygon fill="#FDE497" points="29.482,54.341 23.262,50.519 17.856,54.341 17.856,37.957 29.482,37.957 								"/>
								<path fill="#454B53" d="M17.856,56.422c-0.327,0-0.655-0.077-0.957-0.231c-0.69-0.357-1.125-1.072-1.125-1.85V37.957
									c0-1.148,0.932-2.081,2.081-2.081h11.625c1.149,0,2.081,0.933,2.081,2.081v16.384c0,0.754-0.407,1.448-1.065,1.816
									c-0.657,0.368-1.463,0.354-2.105-0.042l-5.05-3.105l-4.284,3.03C18.7,56.295,18.279,56.422,17.856,56.422z M23.262,48.438
									c0.377,0,0.754,0.104,1.089,0.309l3.049,1.875V40.038h-7.463v10.284l2.123-1.501C22.419,48.566,22.84,48.438,23.262,48.438z
									"/>
							</g>
						</g>
						<g>
							<g>
								<path fill="#E6CBA5" d="M83.88,71.47H45.786V37.957h42.965v28.637C88.751,69.274,86.558,71.47,83.88,71.47z"/>
								<path fill="#454B53" d="M83.88,73.551H45.786c-1.149,0-2.079-0.931-2.079-2.081V37.957c0-1.148,0.93-2.081,2.079-2.081
									h42.965c1.148,0,2.081,0.933,2.081,2.081v28.637C90.832,70.43,87.713,73.551,83.88,73.551z M47.87,69.389h36.01
									c1.538,0,2.791-1.253,2.791-2.795V40.038H47.87V69.389z"/>
							</g>
							<g>
								<polygon fill="#FDE497" points="72.849,54.341 66.634,50.519 61.229,54.341 61.229,37.957 72.849,37.957 								"/>
								<path fill="#454B53" d="M61.229,56.422c-0.327,0-0.655-0.077-0.957-0.231c-0.69-0.357-1.124-1.072-1.124-1.85V37.957
									c0-1.148,0.931-2.081,2.081-2.081h11.62c1.149,0,2.082,0.933,2.082,2.081v16.384c0,0.754-0.409,1.448-1.067,1.816
									s-1.462,0.354-2.104-0.042l-5.046-3.104l-4.284,3.028C62.071,56.295,61.651,56.422,61.229,56.422z M66.634,48.438
									c0.377,0,0.754,0.104,1.089,0.309l3.047,1.872V40.038h-7.46v10.284l2.121-1.501C65.791,48.566,66.212,48.438,66.634,48.438z
									"/>
							</g>
						</g>
					</g>
					<g>
						<g>
							<path fill="#9ABFDA" d="M62.2,37.957H24.105V4.443h42.963V33.08C67.068,35.76,64.879,37.957,62.2,37.957z"/>
							<path fill="#454B53" d="M62.2,40.038H24.105c-1.149,0-2.081-0.931-2.081-2.081V4.443c0-1.147,0.932-2.081,2.081-2.081h42.963
								c1.148,0,2.081,0.933,2.081,2.081V33.08C69.149,36.916,66.03,40.038,62.2,40.038z M26.186,35.875H62.2
								c1.536,0,2.788-1.253,2.788-2.796V6.525H26.186V35.875z"/>
						</g>
						<g>
							<polygon fill="#FDE497" points="51.166,20.828 44.944,17.005 39.542,20.828 39.542,4.443 51.166,4.443 							"/>
							<path fill="#454B53" d="M39.542,22.909c-0.327,0-0.655-0.078-0.956-0.232c-0.691-0.358-1.125-1.071-1.125-1.85V4.443
								c0-1.147,0.932-2.081,2.081-2.081h11.624c1.148,0,2.081,0.933,2.081,2.081v16.384c0,0.754-0.408,1.449-1.067,1.817
								c-0.655,0.368-1.463,0.352-2.104-0.042l-5.053-3.104l-4.279,3.028C40.386,22.781,39.965,22.909,39.542,22.909z
								 M44.944,14.925c0.375,0,0.753,0.104,1.088,0.309l3.053,1.874V6.525h-7.461v10.282l2.118-1.5
								C44.1,15.053,44.521,14.925,44.944,14.925z"/>
						</g>
					</g>
				</g>
				<path fill="#454B53" d="M17.083,66.232H9.46c-1.149,0-2.081-0.931-2.081-2.081c0-1.148,0.932-2.081,2.081-2.081h7.623
					c1.149,0,2.08,0.933,2.08,2.081C19.163,65.302,18.232,66.232,17.083,66.232z"/>
				<path fill="#454B53" d="M60.497,66.232h-7.626c-1.15,0-2.081-0.931-2.081-2.081c0-1.148,0.931-2.081,2.081-2.081h7.626
					c1.148,0,2.081,0.933,2.081,2.081C62.578,65.302,61.646,66.232,60.497,66.232z"/>
				<path fill="#454B53" d="M39.542,32.887h-7.626c-1.148,0-2.081-0.933-2.081-2.081c0-1.15,0.932-2.081,2.081-2.081h7.626
					c1.149,0,2.081,0.931,2.081,2.081C41.624,31.954,40.692,32.887,39.542,32.887z"/>
			</g>
			<g>
				<path fill="#454B53" d="M88.751,80.232H2.421c-1.149,0-2.081-0.931-2.081-2.081c0-1.146,0.932-2.08,2.081-2.08h86.33
					c1.148,0,2.081,0.934,2.081,2.08C90.832,79.302,89.899,80.232,88.751,80.232z"/>
				<path fill="#454B53" d="M10.36,88.174H2.421c-1.149,0-2.081-0.931-2.081-2.081v-7.941c0-1.146,0.932-2.08,2.081-2.08h7.939
					c1.149,0,2.081,0.934,2.081,2.08v7.941C12.441,87.243,11.509,88.174,10.36,88.174z M4.502,84.013h3.777v-3.78H4.502V84.013z"/>
				<path fill="#454B53" d="M49.557,88.174h-7.941c-1.149,0-2.081-0.931-2.081-2.081v-7.941c0-1.146,0.931-2.08,2.081-2.08h7.941
					c1.148,0,2.081,0.934,2.081,2.08v7.941C51.638,87.243,50.705,88.174,49.557,88.174z M43.697,84.013h3.778v-3.78h-3.778V84.013z"
					/>
				<path fill="#454B53" d="M88.751,88.174h-7.943c-1.147,0-2.081-0.931-2.081-2.081v-7.941c0-1.146,0.934-2.08,2.081-2.08h7.943
					c1.148,0,2.081,0.934,2.081,2.08v7.941C90.832,87.243,89.899,88.174,88.751,88.174z M82.889,84.013h3.782v-3.78h-3.782V84.013z"
					/>
			</g>
		</g>
	</g>
</g>
</svg>
