<?xml version="1.0" encoding="utf-8"?>
<!-- Generator: Adobe Illustrator 16.0.0, SVG Export Plug-In . SVG Version: 6.00 Build 0)  -->
<!DOCTYPE svg PUBLIC "-//W3C//DTD SVG 1.1//EN" "http://www.w3.org/Graphics/SVG/1.1/DTD/svg11.dtd">
<svg version="1.1" id="Layer_1" xmlns="http://www.w3.org/2000/svg" xmlns:xlink="http://www.w3.org/1999/xlink" x="0px" y="0px"
	 width="91px" height="91px" viewBox="0 0 91 91" enable-background="new 0 0 91 91" xml:space="preserve">
<g>
	<g>
		<g>
			<g>
				<path fill="#7BA7C9" d="M15.482,44.682c0.035,0.012,0.076-0.243,0.11-0.229h0.01c0.114,0.046,0.231,0.116,0.317,0.203
					c0.025,0.022,0.075,0.056,0.095,0.081c0.052,0.067,0.183,0.133,0.216,0.213c0.046,0.109,0.223,0.229,0.223,0.347
					c0,0.002,0,0.004,0,0.004c0,0.127-0.178,0.258-0.227,0.368c-0.482,1.157-0.881,2.39-0.881,3.648
					c0,5.205,4.233,9.455,9.437,9.455c5.202,0,9.437-4.204,9.437-9.409c0-1.273-0.25-2.445-0.74-3.606
					c-0.2-0.466,0.02-0.88,0.486-1.08c0.168-0.07,0.339,0.208,0.506,0.208h9.566v-9.614c0,0.282-1.789,0.435-2.844,0.435
					c-6.217,0-11.036-5.058-11.036-11.273c0-6.218,4.899-11.276,11.116-11.276c1.054,0,2.764,0.153,2.764,0.437v-9.16H5.422v40.453
					h9.808C15.318,44.885,15.401,44.661,15.482,44.682z"/>
				<path fill="#FDE497" d="M45.875,4.432v10.445c0,0.257,0.213,0.489,0.045,0.653c-0.033,0.032,0.245,0.047,0.21,0.075
					c-0.059,0.044-0.117,0.091-0.187,0.119c-0.221,0.093-0.476,0.102-0.709,0c-0.002,0-0.006,0-0.006,0
					c-1.158-0.484-2.393-0.731-3.654-0.731c-5.205,0-9.457,4.233-9.457,9.438c0,5.203,4.193,9.435,9.396,9.435
					c1.276,0,2.431-0.248,3.592-0.74c0.466-0.195,0.846,0.021,1.044,0.488c0.07,0.164-0.273,0.334-0.273,0.498v10.772h9.78
					c-0.285-1.839-0.438-2.237-0.438-3.291c0-6.219,5.058-11.491,11.273-11.491c6.219,0,11.277,5.202,11.277,11.419
					c0,1.056-0.152,1.524-0.436,3.363h8.998V4.432H45.875z"/>
				<path fill="#9ABFDA" d="M49.631,75.578c5.203,0,9.417-4.231,9.417-9.436c0-5.203-4.279-9.435-9.484-9.435
					c-1.275,0-2.598,0.247-3.755,0.739c-0.465,0.196-1.184-0.02-1.381-0.489c-0.07-0.168-0.391-0.342-0.391-0.505v-9.728h-8.416
					c0.284,0,0.437,1.837,0.437,2.892c0,6.218-5.058,11.087-11.275,11.087c-6.22,0-11.276-4.93-11.276-11.15
					c0-1.054,0.152-2.828,0.438-2.828H5.422v40.453h38.615V75.695c0-0.127,0.374-0.248,0.42-0.359
					c0.003-0.008,0.357-0.013,0.361-0.021c0.047-0.103,0.106-0.194,0.186-0.273c0.052-0.049,0.113-0.081,0.176-0.117
					c0.039-0.026,0.07-0.059,0.115-0.075c0.219-0.092,0.467-0.102,0.703-0.004C47.151,75.333,48.366,75.578,49.631,75.578z"/>
				<path fill="#E0F1F8" d="M76.046,46.726L76.046,46.726c-0.258,0-0.49-0.387-0.655-0.559c-0.009-0.005-0.009-0.296-0.017-0.302
					c-0.15-0.166-0.249-0.378-0.249-0.62c0-0.13,0.028-0.249,0.077-0.36c0.481-1.154,0.727-2.375,0.727-3.635
					c0-5.205-4.233-9.43-9.438-9.43c-5.201,0-9.434,4.251-9.434,9.458c0,1.268,0.249,2.54,0.741,3.706
					c0.196,0.47-0.022,1.078-0.49,1.274c-0.118,0.049-0.239,0.213-0.356,0.213c-0.036,0-0.064,0.254-0.099,0.254H45.875v8.577
					c1.84-0.283,2.287-0.435,3.342-0.435c6.219,0,11.539,5.058,11.539,11.274c0,6.216-5.233,11.274-11.45,11.274
					c-1.056,0-1.591-0.152-3.431-0.436v10.197h34.6c3.725,0,5.855-3.826,5.855-7.552V46.726H76.053
					C76.052,46.726,76.05,46.726,76.046,46.726z"/>
			</g>
			<g>
				<path fill="#454B53" d="M15.02,48.318H3.811c-1.387,0-2.512-1.125-2.512-2.513s1.125-2.513,2.512-2.513H15.02
					c1.389,0,2.514,1.125,2.514,2.513S16.408,48.318,15.02,48.318z"/>
				<path fill="#454B53" d="M45.414,48.318H34.205c-1.387,0-2.512-1.125-2.512-2.513s1.125-2.513,2.512-2.513h11.209
					c1.388,0,2.513,1.125,2.513,2.513S46.802,48.318,45.414,48.318z"/>
				<path fill="#454B53" d="M24.572,62.677c-7.096,0-12.868-5.774-12.868-12.871c0-1.717,0.335-3.389,0.997-4.97
					c0.535-1.279,2.007-1.884,3.287-1.348c1.279,0.535,1.884,2.007,1.348,3.287c-0.402,0.963-0.606,1.982-0.606,3.03
					c0,4.326,3.519,7.846,7.843,7.846c4.325,0,7.844-3.52,7.844-7.846c0-1.06-0.207-2.086-0.615-3.049
					c-0.541-1.277,0.055-2.752,1.333-3.294c1.275-0.542,2.752,0.055,3.294,1.333c0.672,1.587,1.014,3.272,1.014,5.01
					C37.441,56.902,31.668,62.677,24.572,62.677z"/>
				<path fill="#454B53" d="M45.387,17.896c-1.389,0-2.514-1.125-2.514-2.513V4.173c0-1.388,1.125-2.513,2.514-2.513
					c1.387,0,2.512,1.125,2.512,2.513v11.21C47.898,16.771,46.773,17.896,45.387,17.896z"/>
				<path fill="#454B53" d="M45.387,48.289c-1.389,0-2.514-1.125-2.514-2.513v-11.21c0-1.388,1.125-2.513,2.514-2.513
					c1.387,0,2.512,1.125,2.512,2.513v11.21C47.898,47.164,46.773,48.289,45.387,48.289z"/>
				<path fill="#454B53" d="M41.385,37.804c-7.097,0-12.87-5.772-12.87-12.868s5.773-12.869,12.87-12.869
					c1.723,0,3.396,0.337,4.976,1c1.278,0.538,1.88,2.011,1.342,3.29c-0.538,1.278-2.011,1.88-3.29,1.343
					c-0.958-0.403-1.977-0.607-3.027-0.607c-4.326,0-7.845,3.519-7.845,7.844c0,4.324,3.519,7.843,7.845,7.843
					c1.059,0,2.085-0.206,3.049-0.614c1.277-0.54,2.753,0.058,3.293,1.336s-0.058,2.753-1.336,3.293
					C44.804,37.464,43.119,37.804,41.385,37.804z"/>
				<path fill="#454B53" d="M87.045,48.262h-11.21c-1.388,0-2.513-1.125-2.513-2.513s1.125-2.513,2.513-2.513h11.21
					c1.388,0,2.513,1.125,2.513,2.513S88.433,48.262,87.045,48.262z"/>
				<path fill="#454B53" d="M56.649,48.262H45.441c-1.388,0-2.513-1.125-2.513-2.513s1.125-2.513,2.513-2.513h11.208
					c1.388,0,2.513,1.125,2.513,2.513S58.037,48.262,56.649,48.262z"/>
				<path fill="#454B53" d="M56.742,48.289c-0.979,0-1.91-0.575-2.315-1.534c-0.671-1.587-1.011-3.271-1.011-5.007
					c0-7.099,5.771-12.874,12.866-12.874c7.096,0,12.869,5.775,12.869,12.874c0,1.72-0.336,3.393-0.997,4.972
					c-0.536,1.28-2.005,1.883-3.288,1.347c-1.28-0.536-1.883-2.008-1.347-3.288c0.402-0.961,0.606-1.98,0.606-3.03
					c0-4.328-3.519-7.849-7.844-7.849c-4.323,0-7.841,3.521-7.841,7.849c0,1.06,0.206,2.086,0.614,3.05
					c0.54,1.278-0.058,2.753-1.336,3.293C57.4,48.226,57.068,48.289,56.742,48.289z"/>
				<path fill="#454B53" d="M45.441,89.92c-1.388,0-2.513-1.125-2.513-2.513V76.199c0-1.388,1.125-2.513,2.513-2.513
					s2.513,1.125,2.513,2.513v11.208C47.954,88.795,46.829,89.92,45.441,89.92z"/>
				<path fill="#454B53" d="M45.441,59.523c-1.388,0-2.513-1.125-2.513-2.513V45.806c0-1.388,1.125-2.513,2.513-2.513
					s2.513,1.125,2.513,2.513v11.205C47.954,58.398,46.829,59.523,45.441,59.523z"/>
				<path fill="#454B53" d="M49.442,79.516c-1.721,0-3.395-0.337-4.975-1.001c-1.279-0.538-1.88-2.011-1.343-3.29
					c0.538-1.279,2.009-1.881,3.29-1.343c0.96,0.404,1.979,0.608,3.027,0.608c4.326,0,7.845-3.519,7.845-7.844
					c0-4.323-3.519-7.841-7.845-7.841c-1.063,0-2.09,0.206-3.054,0.612c-1.275,0.54-2.752-0.059-3.291-1.338
					c-0.54-1.278,0.059-2.752,1.338-3.291c1.585-0.669,3.27-1.009,5.007-1.009c7.097,0,12.87,5.771,12.87,12.866
					C62.313,73.742,56.539,79.516,49.442,79.516z"/>
				<path fill="#454B53" d="M80.265,90.319H3.811c-1.387,0-2.512-1.125-2.512-2.513V4.173c0-1.388,1.125-2.513,2.512-2.513h84.129
					c1.388,0,2.513,1.125,2.513,2.513v75.959C90.452,85.749,85.882,90.319,80.265,90.319z M6.324,85.294h73.94
					c2.847,0,5.162-2.315,5.162-5.162V6.686H6.324V85.294z"/>
			</g>
		</g>
	</g>
</g>
</svg>
